<?xml version="1.0" standalone="no"?>
<!DOCTYPE svg PUBLIC "-//W3C//DTD SVG 1.1//EN" "http://www.w3.org/Graphics/SVG/1.1/DTD/svg11.dtd" >
<svg xmlns="http://www.w3.org/2000/svg">
<metadata>Generated by IcoMoon</metadata>
<defs>
<font id="iconfont" horiz-adv-x="1024">
<font-face units-per-em="1024" ascent="1003.52" descent="-20.48" />
<missing-glyph horiz-adv-x="1024" />
<glyph unicode="&#x20;" d="" horiz-adv-x="512" />
<glyph unicode="&#xe600;" d="M512 1024c-282.77 0-512-229.23-512-512s229.23-512 512-512 512 229.23 512 512-229.23 512-512 512zM448 832h128v-128h-128v128zM640 192h-256v64h64v256h-64v64h192v-320h64v-64z" />
<glyph unicode="&#xe601;" d="M512 1024c-282.77 0-512-229.23-512-512s229.23-512 512-512 512 229.23 512 512-229.23 512-512 512zM768 677.49l-165.488-165.49 165.488-165.488v-90.512h-90.512l-165.488 165.488-165.49-165.488h-90.51v90.512l165.49 165.488-165.49 165.49v90.51h90.51l165.49-165.49 165.488 165.49h90.512v-90.51z" />
<glyph unicode="&#xe602;" d="M512 1024c-282.77 0-512-229.23-512-512s229.23-512 512-512 512 229.23 512 512-229.23 512-512 512zM416 192l-212 276 94 98 118-150 370 302 46-46-416-480z" />
<glyph unicode="&#xe603;" d="M512 0q-104 0-199 40.5t-163.5 109-109 163.5-40.5 199 40.5 199 109 163.5 163.5 109 199 40.5 199-40.5 163.5-109 109-163.5 40.5-199-40.5-199-109-163.5-163.5-109-199-40.5zM544 896q-40 0-68-28t-28-67.5 28-68 68-28.5 68 28.5 28 68-28 67.5-68 28zM673 366q-60-63-88-81.5t-55-18.5q-15 0-25.5 13.5t-10.5 34.5q0 43 82 326l-155 29q-101-249-101-390 0-65 31-108t76-43q81 0 246 162v76z" />
<glyph unicode="&#xe604;" d="M761.862 0c113.726 206.032 132.888 520.306-313.862 509.824v-253.824l-384 384 384 384v-248.372c534.962 13.942 594.57-472.214 313.862-775.628z" />
<glyph unicode="&#xe605;" d="M960 384h-320v-320q0-27-18.5-45.5t-45.5-18.5h-128q-27 0-45.5 19t-18.5 45v320h-320q-27 0-45.5 19t-18.5 45v128q0 27 18.5 45.5t45.5 18.5h320v320q0 27 18.5 45.5t45.5 18.5h128q27 0 45.5-18.5t18.5-45.5v-320h320q27 0 45.5-18.5t18.5-45.5v-128q0-26-18.5-45t-45.5-19z" />
<glyph unicode="&#xe606;" d="M933 513h-166v191q0 27-18.5 45.5t-44.5 18.5h-384q-26 0-45-18.5t-19-45.5v-191h-164q-12 0-20-13t-7-31 13-30l389-420q18-19 45-19t46 19l388 420q12 12 13.5 30t-6.5 31-20 13zM320 831h384q26 0 44.5 19t18.5 45v65q0 26-18.5 45t-44.5 19h-384q-26 0-45-18.5t-19-45.5v-65q0-26 19-45t45-19z" />
<glyph unicode="&#xe607;" d="M577 800l426-434q21-21 21-51t-21-51l-51-51q-21-21-51-21t-51 21l-338 338-338-338q-21-21-51-21t-51 21l-51 51q-21 21-21 51t21 51l428 434q32 32 64 32t64-32z" />
<glyph unicode="&#xe608;" d="M577 224l426 434q21 21 21 51t-21 51l-51 51q-21 21-51 21t-51-21l-338-338-338 338q-21 21-51 21t-51-21l-51-51q-21-21-21-51t21-51l428-434q32-32 64-32t64 32z" />
<glyph unicode="&#xe60b;" d="M622.826 321.264c-22.11 3.518-22.614 64.314-22.614 64.314s64.968 64.316 79.128 150.802c38.090 0 61.618 91.946 23.522 124.296 1.59 34.054 48.96 267.324-190.862 267.324-239.822 0-192.45-233.27-190.864-267.324-38.094-32.35-14.57-124.296 23.522-124.296 14.158-86.486 79.128-150.802 79.128-150.802s-0.504-60.796-22.614-64.314c-71.22-11.332-337.172-128.634-337.172-257.264h896c0 128.63-265.952 245.932-337.174 257.264z" />
<glyph unicode="&#xe60c;" d="M992.262 152.604l-242.552 206.294c-25.074 22.566-51.89 32.926-73.552 31.926 57.256 67.068 91.842 154.078 91.842 249.176 0 212.078-171.922 384-384 384-212.076 0-384-171.922-384-384 0-212.078 171.922-384 384-384 95.098 0 182.108 34.586 249.176 91.844-1-21.662 9.36-48.478 31.926-73.552l206.294-242.552c35.322-39.246 93.022-42.554 128.22-7.356s31.892 92.898-7.354 128.22zM384 384c-141.384 0-256 114.616-256 256s114.616 256 256 256 256-114.616 256-256-114.614-256-256-256z" />
<glyph unicode="&#xe60d;" d="M933.79 413.75c-53.726 93.054-21.416 212.304 72.152 266.488l-100.626 174.292c-28.75-16.854-62.176-26.518-97.846-26.518-107.536 0-194.708 87.746-194.708 195.99h-201.258c0.266-33.41-8.074-67.282-25.958-98.252-53.724-93.056-173.156-124.702-266.862-70.758l-100.624-174.292c28.97-16.472 54.050-40.588 71.886-71.478 53.638-92.908 21.512-211.92-71.708-266.224l100.626-174.292c28.65 16.696 61.916 26.254 97.4 26.254 107.196 0 194.144-87.192 194.7-194.958h201.254c-0.086 33.074 8.272 66.57 25.966 97.218 53.636 92.906 172.776 124.594 266.414 71.012l100.626 174.29c-28.78 16.466-53.692 40.498-71.434 71.228zM512 304.668c-114.508 0-207.336 92.824-207.336 207.334 0 114.508 92.826 207.334 207.336 207.334 114.508 0 207.332-92.826 207.332-207.334-0.002-114.51-92.824-207.334-207.332-207.334z" />
<glyph unicode="&#xe60e;" d="M800 896h-576c-53.020 0-96-42.98-96-96v-32h768v32c0 53.020-42.98 96-96 96zM632.32 960l14.116-101h-268.872l14.114 101h240.642M640 1024h-256c-26.4 0-50.99-21.392-54.642-47.538l-18.714-133.924c-3.654-26.146 14.956-47.538 41.356-47.538h320c26.4 0 45.010 21.392 41.358 47.538l-18.714 133.924c-3.654 26.146-28.244 47.538-54.644 47.538v0zM816 704h-608c-35.2 0-61.392-28.682-58.206-63.738l52.412-576.526c3.186-35.054 34.594-63.736 69.794-63.736h480c35.2 0 66.608 28.682 69.794 63.736l52.41 576.526c3.188 35.056-23.004 63.738-58.204 63.738zM384 128h-96l-32 448h128v-448zM576 128h-128v448h128v-448zM736 128h-96v448h128l-32-448z" />
<glyph unicode="&#xe610;" d="M0 128v768q0 53 37.5 90.5t90.5 37.5h768q53 0 90.5-37.5t37.5-90.5v-768q0-53-37.5-90.5t-90.5-37.5h-768q-53 0-90.5 37.5t-37.5 90.5zM531 264l232 409q13 12-7 31h-488q-20-18-7-31l232-409q8-8 19-8t19 8z" />
<glyph unicode="&#xe611;" d="M849.92 512.768l-195.994-0.051 0.051-359.219h-284.262v359.27l-195.635-0.051 337.971 388.301z" />
<glyph unicode="&#xe612;" d="M849.92 511.232l-195.994 0.051 0.051 359.219h-284.262v-359.27l-195.635 0.051 337.92-388.301z" />
<glyph unicode="&#xe613;" d="M614.286 530.286q0-7.429-5.714-13.143l-266.286-266.286q-5.714-5.714-13.143-5.714t-13.143 5.714l-266.286 266.286q-5.714 5.714-5.714 13.143t5.714 13.143l28.571 28.571q5.714 5.714 13.143 5.714t13.143-5.714l224.571-224.571 224.571 224.571q5.714 5.714 13.143 5.714t13.143-5.714l28.571-28.571q5.714-5.714 5.714-13.143zM614.286 749.714q0-7.429-5.714-13.143l-266.286-266.286q-5.714-5.714-13.143-5.714t-13.143 5.714l-266.286 266.286q-5.714 5.714-5.714 13.143t5.714 13.143l28.571 28.571q5.714 5.714 13.143 5.714t13.143-5.714l224.571-224.571 224.571 224.571q5.714 5.714 13.143 5.714t13.143-5.714l28.571-28.571q5.714-5.714 5.714-13.143z" horiz-adv-x="658" />
<glyph unicode="&#xe614;" d="M960 0h-64q-27 0-45.5 18.5t-18.5 45.5v64q0 26 18.5 45t45.5 19v256h-320v-256q26 0 45-19t19-45v-64q0-27-19-45.5t-45-18.5h-64q-27 0-45.5 18.5t-18.5 45.5v64q0 26 18.5 45t45.5 19v256h-320v-256q26 0 45-19t19-45v-64q0-27-19-45.5t-45-18.5h-64q-27 0-45.5 18.5t-18.5 45.5v64q0 26 18.5 45t45.5 19v288q0 13 9.5 22.5t22.5 9.5h352v192h-64q-27 0-45.5 18.5t-18.5 45.5v192q0 26 18.5 45t45.5 19h192q26 0 45-19t19-45v-192q0-27-19-45.5t-45-18.5h-64v-192h352q13 0 22.5-9.5t9.5-22.5v-288q26 0 45-19t19-45v-64q0-27-19-45.5t-45-18.5z" />
<glyph unicode="&#xe615;" d="M758.784 284.262c-126.208 45.978-166.554 84.787-166.554 167.885 0 49.869 38.554 33.587 55.45 124.928 7.014 37.888 41.062 0.614 47.616 87.091 0 34.458-18.586 43.059-18.586 43.059s9.472 51.046 13.158 90.266c4.506 48.947-28.262 175.309-203.469 175.309-175.155 0-208.026-126.362-203.418-175.309 3.686-39.219 13.158-90.266 13.158-90.266s-18.637-8.55-18.637-43.059c6.502-86.477 40.55-49.203 47.565-87.091 16.947-91.341 55.501-75.059 55.501-124.928 0-83.098-40.346-121.907-166.554-167.885-126.669-46.080-208.896-93.133-208.896-125.235 0-32.051 0-107.776 0-107.776h962.56c0 0 0 75.725 0 107.776s-82.278 79.104-208.896 125.235z" />
<glyph unicode="&#xe616;" d="M512 0q-139 0-257 68.5t-186.5 186.5-68.5 257 68.5 257 186.5 186.5 257 68.5 257-68.5 186.5-186.5 68.5-257-68.5-257-186.5-186.5-257-68.5zM512 192q27 0 45.5 18.5t18.5 45-19 45.5-45 19-45-19-19-45.5 18.5-45 45.5-18.5zM512 832q-53 0-90.5-37.5t-37.5-90.5l64-256q0-27 19-45.5t45-18.5 45 18.5 19 45.5l64 256q0 53-37.5 90.5t-90.5 37.5z" />
<glyph unicode="&#xe617;" d="M416 96l581 579q22 22 26.5 63t-11 87-46.5 77l-64 64q-31 31-77 46.5t-87 11-63-26.5l-579-581-96-416zM789 740q29-30 39-76t-4-75q0-1 0.5-3l0.5-2-340-340q-19 22-29.5 57t-11 64 3.5 51l332 332zM699 940q24 26 79 19t90-42l49-49q35-35 42-90t-19-79l-46-47q-9 75-56 122l-64 64q-47 47-122 55zM572 813q24 25 78.5 18t89.5-42l8-8-332-333q-22-4-51-3.5t-64 11-57 29.5zM152 392l55 55q36-27 85.5-44t91.5-18q0-42 17.5-92.5t44.5-86.5l-54-54-152-29q-16 46-43.5 73.5t-73.5 43.5z" />
<glyph unicode="&#xe618;" d="M512 0q-139 0-257 68.5t-186.5 186.5-68.5 257 68.5 257 186.5 186.5 257 68.5 257-68.5 186.5-186.5 68.5-257-68.5-257-186.5-186.5-257-68.5zM768 544q0 13-9.5 22.5t-22.5 9.5h-448q-13 0-22.5-9.5t-9.5-22.5v-64q0-13 9.5-22.5t22.5-9.5h448q13 0 22.5 9.5t9.5 22.5v64z" />
<glyph unicode="&#xe619;" d="M864 1024h-768c-52.8 0-96-43.2-96-96v-832c0-52.8 43.2-96 96-96h768c52.8 0 96 43.2 96 96v832c0 52.8-43.2 96-96 96zM832 128h-704v768h704v-768zM256 448h448v-64h-448zM256 320h448v-64h-448zM320 736c0 53.019 42.981 96 96 96s96-42.981 96-96c0-53.019-42.981-96-96-96-53.019 0-96 42.981-96 96zM480 640h-128c-52.8 0-96-28.8-96-64v-64h320v64c0 35.2-43.2 64-96 64z" />
<glyph unicode="&#xe61a;" d="M512 256h256v128h-256v-128zM256 256h128v128h-128v-128zM256 448h128v128h-128v-128zM512 640h256v128h-256v-128zM896 1024h-768c-70.656 0-128-57.344-128-128v-768c0-70.656 57.344-128 128-128h768c70.656 0 128 57.344 128 128v768c0 70.656-57.344 128-128 128zM896 192c0-35.392-28.608-64-64-64h-640c-35.328 0-64 28.608-64 64v640c0 35.328 28.672 64 64 64h640c35.392 0 64-28.672 64-64v-640zM512 448h256v128h-256v-128zM256 640h128v128h-128v-128z" />
<glyph unicode="&#xe61b;" d="M1005.376 627.032l-378.218 378.186c-14.434 14.496-33.802 20.088-52.736 18.526h-124.844c-18.932 1.562-38.302-4.030-52.736-18.526l-76.792-76.794v95.32h-191.952v-287.272l-109.474-109.44c-14.496-14.496-20.056-33.834-18.494-52.736v-126.404c0-35.336 28.618-63.986 63.982-63.986h63.984v-319.918c0-35.336 28.618-63.984 63.984-63.984h639.84c35.366 0 63.984 28.648 63.984 63.984v319.916h63.982c35.368 0 63.984 28.65 63.984 63.986v126.404c1.564 18.904-3.996 38.242-18.494 52.738zM895.904 511.874h-127.968v-383.902h-127.966v255.932h-255.936v-255.934h-127.968v383.904h-127.968v35.492l348.412 348.412h70.982l348.412-348.412v-35.492z" />
<glyph unicode="&#xe61c;" d="M512 0q-104 0-199 40.5t-163.5 109-109 163.5-40.5 199 40.5 199 109 163.5 163.5 109 199 40.5 199-40.5 163.5-109 109-163.5 40.5-199-40.5-199-109-163.5-163.5-109-199-40.5zM512 896q-104 0-192.5-51.5t-140-140-51.5-192.5 51.5-192.5 140-140 192.5-51.5 192.5 51.5 140 140 51.5 192.5-51.5 192.5-140 140-192.5 51.5zM687 337q-17-17-41-17t-41 17l-94 94-93-94q-17-17-41-17t-41 17-17 41 17 41l93 94-93 93q-17 17-17 41t17 41 41 17 41-17l93-94 94 94q17 17 41 17t41-17 17-41-17-41l-94-93 94-94q17-17 17-41t-17-41z" />
<glyph unicode="&#xe61d;" d="M512 0q-139 0-257 68.5t-186.5 186.5-68.5 257 68.5 257 186.5 186.5 257 68.5 257-68.5 186.5-186.5 68.5-257-68.5-257-186.5-186.5-257-68.5zM512 896q-104 0-192.5-51.5t-140-140-51.5-192.5 51.5-192.5 140-140 192.5-51.5 192.5 51.5 140 140 51.5 192.5-51.5 192.5-140 140-192.5 51.5zM510 365q-5-18-15-28-20-20-49-16-28-2-46 16-10 10-14 27l-114 114q-17 17-17 41t17 41 41 17 41-17l93-93 222 221q17 17 41 17t41-17 17-41-17-41z" />
<glyph unicode="&#xe61e;" d="M512 0q-104 0-199 40.5t-163.5 109-109 163.5-40.5 199 40.5 199 109 163.5 163.5 109 199 40.5 199-40.5 163.5-109 109-163.5 40.5-199-40.5-199-109-163.5-163.5-109-199-40.5zM812.5 685.5q-19.5 19.5-47.5 19.5t-47-20l-271-270-142 142q-19 20-47 20t-47.5-19.5-19.5-47.5 20-47l187-187q20-21 50-20 29-1 49 20l315 315q20 19 20 47t-19.5 47.5z" />
<glyph unicode="&#xe61f;" d="M614.286 274.286q0-7.429-5.714-13.143l-28.571-28.571q-5.714-5.714-13.143-5.714t-13.143 5.714l-224.571 224.571-224.571-224.571q-5.714-5.714-13.143-5.714t-13.143 5.714l-28.571 28.571q-5.714 5.714-5.714 13.143t5.714 13.143l266.286 266.286q5.714 5.714 13.143 5.714t13.143-5.714l266.286-266.286q5.714-5.714 5.714-13.143zM614.286 493.714q0-7.429-5.714-13.143l-28.571-28.571q-5.714-5.714-13.143-5.714t-13.143 5.714l-224.571 224.571-224.571-224.571q-5.714-5.714-13.143-5.714t-13.143 5.714l-28.571 28.571q-5.714 5.714-5.714 13.143t5.714 13.143l266.286 266.286q5.714 5.714 13.143 5.714t13.143-5.714l266.286-266.286q5.714-5.714 5.714-13.143z" horiz-adv-x="658" />
<glyph unicode="&#xe620;" d="M512 0q-104 0-199 40.5t-163.5 109-109 163.5-40.5 199 40.5 199 109 163.5 163.5 109 199 40.5 199-40.5 163.5-109 109-163.5 40.5-199-40.5-199-109-163.5-163.5-109-199-40.5zM768 576h-192v192q0 26-19 45t-45.5 19-45-19-18.5-45v-192h-192q-27 0-45.5-19t-18.5-45.5 18.5-45 45.5-18.5h192v-192q0-27 18.5-45.5t45-18.5 45.5 18.5 19 45.5v192h192q27 0 45.5 18.5t18.5 45-19 45.5-45 19z" />
<glyph unicode="&#xe621;" d="M292.571 603.429v-329.143q0-8-5.143-13.143t-13.143-5.143h-36.571q-8 0-13.143 5.143t-5.143 13.143v329.143q0 8 5.143 13.143t13.143 5.143h36.571q8 0 13.143-5.143t5.143-13.143zM438.857 603.429v-329.143q0-8-5.143-13.143t-13.143-5.143h-36.571q-8 0-13.143 5.143t-5.143 13.143v329.143q0 8 5.143 13.143t13.143 5.143h36.571q8 0 13.143-5.143t5.143-13.143zM585.143 603.429v-329.143q0-8-5.143-13.143t-13.143-5.143h-36.571q-8 0-13.143 5.143t-5.143 13.143v329.143q0 8 5.143 13.143t13.143 5.143h36.571q8 0 13.143-5.143t5.143-13.143zM658.286 189.714v541.714h-512v-541.714q0-12.571 4-23.143t8.286-15.429 6-4.857h475.429q1.714 0 6 4.857t8.286 15.429 4 23.143zM274.286 804.571h256l-27.429 66.857q-4 5.143-9.714 6.286h-181.143q-5.714-1.143-9.714-6.286zM804.571 786.286v-36.571q0-8-5.143-13.143t-13.143-5.143h-54.857v-541.714q0-47.429-26.857-82t-64.571-34.571h-475.429q-37.714 0-64.571 33.429t-26.857 80.857v544h-54.857q-8 0-13.143 5.143t-5.143 13.143v36.571q0 8 5.143 13.143t13.143 5.143h176.571l40 95.429q8.571 21.143 30.857 36t45.143 14.857h182.857q22.857 0 45.143-14.857t30.857-36l40-95.429h176.571q8 0 13.143-5.143t5.143-13.143z" horiz-adv-x="805" />
<glyph unicode="&#xe622;" d="M1024 128q0-26-18.5-45t-45.5-19h-896q-27 0-45.5 19t-18.5 45q0 17 9 32l439 736q8 18 11.5 24t12 18.5 18 17 22.5 4.5q17 0 29.5-10t19-21.5 15.5-32.5l439-736q9-15 9-32zM576 640q0 27-18.5 45.5t-45.5 18.5-45.5-18.5-18.5-45.5v-192q0-26 19-45t45-19 45 19 19 45v192zM511.5 320q-26.5 0-45-18.5t-18.5-45 19-45.5 45-19 45 19 19 45.5-19 45-45.5 18.5z" />
<glyph unicode="&#xe625;" d="M960 448h-640v128h640q26 0 45-19t19-45-19-45-45-19zM960 832h-640v128h640q26 0 45-19t19-45.5-19-45-45-18.5zM224 0h-192q-13 0-22.5 9.5t-9.5 22.5v192q0 13 9.5 22.5t22.5 9.5h192q13 0 22.5-9.5t9.5-22.5v-192q0-13-9.5-22.5t-22.5-9.5zM224 384h-192q-13 0-22.5 9.5t-9.5 22.5v192q0 13 9.5 22.5t22.5 9.5h192q13 0 22.5-9.5t9.5-22.5v-192q0-13-9.5-22.5t-22.5-9.5zM224 768h-192q-13 0-22.5 9.5t-9.5 22.5v192q0 13 9.5 22.5t22.5 9.5h192q13 0 22.5-9.5t9.5-22.5v-192q0-13-9.5-22.5t-22.5-9.5zM1024 128q0-26-19-45t-45-19h-640v128h640q26 0 45-19t19-45z" />
<glyph unicode="&#xe626;" d="M512 1003.52c-271.462 0-491.52-220.058-491.52-491.52s220.058-491.52 491.52-491.52c271.514 0 491.52 220.058 491.52 491.52s-220.006 491.52-491.52 491.52zM776.499 776.397l-0.102 0.102c0-0.051 0.102-0.102 0.102-0.102zM138.035 512c0 206.541 167.424 373.965 373.965 373.965 89.805 0 172.237-31.642 236.749-84.378l-526.285-526.234c-52.787 64.461-84.429 146.842-84.429 236.646zM247.501 247.603l0.102-0.102c-0.051 0.051-0.051 0.051-0.102 0.102zM512 137.984c-89.805 0-172.186 31.693-236.646 84.429l526.131 526.234c52.787-64.461 84.48-146.842 84.48-236.646 0.051-206.541-167.475-374.016-373.965-374.016z" />
<glyph unicode="&#xe627;" d="M505.702 982.989c-260.096-3.482-468.173-217.19-464.691-477.338 3.482-259.994 217.19-468.122 477.286-464.64 260.096 3.482 468.173 217.19 464.691 477.338-3.43 260.045-217.19 468.122-477.286 464.64zM557.926 826.010c47.872 0 62.003-27.75 62.003-59.546 0-39.68-31.795-76.39-86.016-76.39-45.363 0-66.918 22.835-65.638 60.518 0 31.795 26.624 75.418 89.651 75.418zM435.149 217.6c-32.717 0-56.678 19.866-33.792 107.213l37.53 154.829c6.502 24.832 7.578 34.765 0 34.765-9.779 0-52.275-17.152-77.414-34.048l-16.333 26.778c79.616 66.458 171.162 105.472 210.381 105.472 32.717 0 38.144-38.707 21.811-98.253l-43.008-162.816c-7.578-28.774-4.301-38.707 3.277-38.707 9.779 0 41.984 11.878 73.626 36.762l18.483-24.832c-77.363-77.363-161.792-107.162-194.56-107.162z" />
<glyph unicode="&#xe628;" d="M920.571 329.143q0-30.286-21.143-51.429l-42.857-42.857q-21.714-21.714-52-21.714-30.857 0-51.429 21.714l-277.714 277.143-277.714-277.143q-20.571-21.714-51.429-21.714t-51.429 21.714l-42.857 42.857q-21.714 20.571-21.714 51.429 0 30.286 21.714 52l372 372q21.143 21.143 51.429 21.143 29.714 0 52-21.143l371.429-372q21.714-21.714 21.714-52z" horiz-adv-x="951" />
<glyph unicode="&#xe629;" d="M505.754 982.989c-260.147-3.482-468.224-217.19-464.742-477.338 3.482-259.994 217.19-468.122 477.338-464.64 260.045 3.482 468.173 217.19 464.64 477.338-3.43 260.045-217.139 468.122-477.235 464.64zM504.371 225.28h-2.611c-40.038 1.178-68.301 30.72-67.174 70.195 1.126 38.758 30.054 66.97 68.813 66.97l2.355-0.051c41.165-1.229 69.12-30.464 67.891-71.066-1.126-38.861-29.645-66.048-69.274-66.048zM672.87 559.718c-9.472-13.363-30.157-30.003-56.269-50.33l-28.774-19.866c-15.77-12.288-25.293-23.808-28.826-35.123-2.867-9.011-4.198-11.315-4.454-29.491l-0.051-4.659h-109.722l0.307 9.318c1.331 38.195 2.304 60.621 18.125 79.206 24.832 29.133 79.616 64.41 81.92 65.894 7.834 5.939 14.438 12.646 19.405 19.814 11.52 15.872 16.589 28.416 16.589 40.653 0 17.050-5.069 32.819-15.053 46.848-9.626 13.568-27.904 20.429-54.323 20.429-26.214 0-44.134-8.346-54.886-25.395-11.11-17.562-16.64-35.942-16.64-54.784v-4.71h-113.152l0.205 4.915c2.918 69.325 27.648 119.194 73.523 148.326 28.774 18.586 64.614 27.955 106.394 27.955 54.733 0 101.018-13.312 137.37-39.526 36.864-26.573 55.552-66.406 55.552-118.323 0-29.082-9.165-56.371-27.238-81.152z" />
<glyph unicode="&#xe62a;" d="M920.571 621.714q0-30.286-21.143-51.429l-372-372q-21.714-21.714-52-21.714-30.857 0-51.429 21.714l-372 372q-21.714 20.571-21.714 51.429 0 30.286 21.714 52l42.286 42.857q22.286 21.143 52 21.143 30.286 0 51.429-21.143l277.714-277.714 277.714 277.714q21.143 21.143 51.429 21.143 29.714 0 52-21.143l42.857-42.857q21.143-22.286 21.143-52z" horiz-adv-x="951" />
<glyph unicode="&#xe62b;" d="M960 0h-896q-26 0-45 18.5t-19 45.5 19 45.5 45 18.5h896q26 0 45-18.5t19-45-19-45.5-45-19zM928 192h-864l176 330q5 9 16 12.5t21-0.5v1q-4 3-3 3 2 0 9-6t11-15l35-35 185 263q2 9 7 14 9 9 23 9 13 0 23-9 0-1 1-2.5l1-1.5 89-72 240 319q8 22 30 22h1q13 0 22-9t9-22v-769q0-13-9.5-22.5t-22.5-9.5z" />
<glyph unicode="&#xe62d;" d="M977.76 184.992l-400.608 685.952c-33.408 33.408-87.616 33.408-121.024 0l-400.64-685.952c-33.408-33.376-33.408-87.552 0-120.992h922.24c33.472 33.44 33.472 87.616 0.032 120.992zM479.744 624.704c0 26.528 21.504 48 48 48s48-21.472 48-48v-224c0-26.496-21.504-48-48-48s-48 21.504-48 48v224zM528.032 192.448c-26.496 0-48 21.44-48 48 0 26.496 21.504 48 48 48s48-21.504 48-48c0-26.56-21.504-48-48-48z" />
<glyph unicode="&#xe62e;" d="M896 0h-768q-53 0-90.5 37.5t-37.5 90.5v96q0 26 19 45t45 19 45-19 19-45v-32q0-27 18.5-45.5t45.5-18.5h640q27 0 45.5 18.5t18.5 45.5v32q0 26 19 45t45 19 45-19 19-45v-96q0-53-37.5-90.5t-90.5-37.5zM875 640h-235v-320q0-27-18.5-45.5t-45.5-18.5h-128q-27 0-45.5 18.5t-18.5 45.5v320h-236q-15 0-18.5 6t8.5 19l341 345q14 14 33 14t33-14l341-345q12-13 8-19t-19-6z" />
<glyph unicode="&#xe62f;" d="M127.584 864h-31.584v-768h832v30.816l-799.872 1.6-0.544 735.584zM352 832c0 17.696-14.336 32-32 32h-96c-17.696 0-32-14.304-32-32v-640h160v640zM544 640c0 17.696-14.336 32-32 32h-96c-17.696 0-32-14.304-32-32v-448h160v448zM736 448c0 17.696-14.336 32-32 32h-96c-17.696 0-32-14.304-32-32v-256h160v256zM896 288h-96c-17.696 0-32-14.304-32-32v-64h160v64c0 17.696-14.336 32-32 32z" />
<glyph unicode="&#xe630;" d="M864 511.008h-640v-160h640c17.664 0 32 14.304 32 32v96c0 17.664-14.336 32-32 32zM704 191.008v96c0 17.696-14.336 32-32 32h-448v-160h448c17.664 0 32 14.304 32 32zM512 575.008v96c0 17.664-14.336 32-32 32h-256v-160h256c17.664 0 32 14.336 32 32zM320 767.008v96c0 17.696-14.336 32-32 32h-64v-160h64c17.664 0 32 14.336 32 32zM160 895.008h-32v-830.016h768v32h-736v798.016z" />
<glyph unicode="&#xe631;" d="M543.936 513.856c0 0 3.072 383.552 0 383.552 220.672 0 383.552-162.88 383.552-383.552 0-1.216-383.552 0-383.552 0zM895.552 435.136c0-229.472-186.048-415.52-415.52-415.52-229.504 0-415.52 186.048-415.52 415.52 0 229.504 186.016 415.52 415.52 415.52 10.784 0 21.376-0.768 31.968-1.6v-367.168h381.056c1.6-14.72 2.496-31.616 2.496-46.752zM861.6 447.936h-381.568v370.752c-211.84 0-383.552-171.744-383.552-383.584s171.712-383.52 383.552-383.52 383.552 171.68 383.552 383.52c0 41.28-1.984 12.832-1.984 12.832z" />
<glyph unicode="&#xe632;" d="M889.056 738.048c30.688-74.016 16.064-162.368-44.128-222.56-66.272-66.272-166.432-76.64-244.288-32.704l-56.288-61.472 40.16-40.32 24 24c12.256 12.288 32.16 12.288 44.416 0l194.624-196.608c12.288-12.256 12.288-32.16 0-44.416l-88.832-88.832c-12.256-12.288-32.16-12.288-44.416 0l-194.624 196.608c-12.288 12.256-12.288 32.16 0 44.416l21.92 21.92-38.272 38.368-269.152-294.048c-24.544-24.544-64.32-24.544-88.832 0l-22.208 22.208c-24.544 24.544-24.544 64.32 0 88.832l306.624 256.8-203.648 204.192-64.32 0.032-74.432 119.68 59.904 60 122.4-74.912 0.8-62.976 206.016-206.816 59.936 50.176c-58.592 79.872-52.48 192.384 19.712 264.576 59.904 59.904 147.776 74.784 221.6 44.672l-131.968-130.144 111.072-111.072 132.224 130.4zM196.8 162.112c-12.256 12.256-32.128 12.256-44.416 0-12.288-12.288-12.288-32.16 0-44.448 12.288-12.256 32.16-12.256 44.416 0 12.288 12.32 12.288 32.192 0 44.448z" />
<glyph unicode="&#xe633;" d="M896 0h-768q-53 0-90.5 37.5t-37.5 90.5v96q0 26 18.5 45t45 19 45.5-19 19-45v-32q0-27 18.5-45.5t45.5-18.5h640q26 0 45 18.5t19 45.5v32q0 26 18.5 45t45 19 45.5-19 19-45v-96q0-53-37.5-90.5t-90.5-37.5zM545 270q-14-14-33-14t-33 14l-341 345q-12 13-8.5 19t18.5 6h236v320q0 27 18.5 45.5t45.5 18.5h128q27 0 45.5-18.5t18.5-45.5v-320h235q15 0 19-6t-8-19z" />
<glyph unicode="&#xe634;" d="M512 512l-512 259v61q0 27 19 45.5t45 18.5h896q26 0 45-18.5t19-45.5v-61zM480 448h64l480 249v-505q0-26-19-45t-45-19h-896q-26 0-45 19t-19 45v505z" />
<glyph unicode="&#xe636;" d="M256 384h512v-128h-512zM256 576h512v-128h-512zM960 1024h-896c-35.376 0-64-28.624-64-64v-896c0-35.376 28.624-64 64-64h896c35.376 0 64 28.624 64 64v896c0 35.376-28.624 64-64 64zM896 128h-768v768h768v-768zM256 768h512v-128h-512z" />
<glyph unicode="&#xe637;" d="M512 0c-282.75 0-512 229.25-512 512 0 282.782 229.25 512 512 512s512-229.218 512-512c0-282.75-229.25-512-512-512zM512 896c-212.062 0-384-171.938-384-384s171.938-384 384-384 384 171.938 384 384-171.938 384-384 384zM384 704l320-192-320-192v384z" />
<glyph unicode="&#xe638;" d="M512 0c-282.75 0-512 229.25-512 512 0 282.782 229.25 512 512 512s512-229.218 512-512c0-282.75-229.25-512-512-512zM512 896c-212.062 0-384-171.938-384-384s171.938-384 384-384 384 171.938 384 384-171.938 384-384 384zM384 640h256v-256h-256v256z" />
<glyph unicode="&#xe639;" d="M990.208 330.547l-163.021 109.67h-100.506l174.080-133.53h-181.504c-5.222 0-9.882-2.662-12.288-6.81l-41.779-114.432h-306.381l-41.83 114.432c-2.304 4.147-7.066 6.81-12.288 6.81h-181.453l174.131 133.53h-100.557l-162.97-109.67c-24.269-14.49-38.758-47.923-32.256-74.189l28.723-157.389c6.502-26.317 35.379-47.872 64.051-47.872h835.226c28.774 0 57.6 21.555 64.102 47.872l28.723 157.389c6.605 26.317-7.936 59.699-32.205 74.189zM778.291 659.354h-169.011v262.144h-194.56v-262.144h-168.96l266.24-249.856 266.291 249.856z" />
<glyph unicode="&#xe63a;" d="M512 921.498l-266.24-249.856h168.96v-262.144h194.56v262.144h169.011l-266.291 249.856zM990.208 330.547l-163.021 109.67h-100.506l174.080-133.53h-181.504c-5.222 0-9.882-2.662-12.288-6.81l-41.779-114.432h-306.381l-41.83 114.432c-2.304 4.147-7.066 6.81-12.288 6.81h-181.453l174.131 133.53h-100.557l-162.97-109.67c-24.269-14.49-38.758-47.923-32.256-74.189l28.723-157.389c6.502-26.317 35.379-47.872 64.051-47.872h835.226c28.774 0 57.6 21.555 64.102 47.872l28.723 157.389c6.605 26.317-7.936 59.699-32.205 74.189z" />
<glyph unicode="&#xe63b;" d="M921.6 921.6h-819.2c-56.32 0-102.4-46.080-102.4-102.4v-614.4c0-56.32 46.080-102.4 102.4-102.4h819.2c56.371 0 102.4 46.080 102.4 102.4v614.4c0 56.32-46.029 102.4-102.4 102.4zM921.6 204.8h-819.2v614.4h819.2v-614.4zM460.8 404.48h-256v-92.16h256v92.16zM460.8 558.080h-256v-92.16h256v92.16zM460.8 711.68h-256v-92.16h256v92.16zM814.080 384c0 0-87.040 22.733-87.040 67.482 0 42.598 56.371 60.518 56.371 147.558 0 70.656-21.504 112.64-92.211 112.64s-92.16-41.933-92.16-112.64c0-87.040 56.32-104.96 56.32-147.558 0-44.749-86.989-67.482-86.989-67.482-5.171 0-5.171-71.68-5.171-71.68h256c0 0 0 71.68-5.12 71.68z" />
<glyph unicode="&#xe63c;" d="M254.003 0c-68.403 0-132.454 28.979-178.739 75.315-89.6 89.6-114.637 246.067 11.008 371.712 73.677 73.574 368.589 368.486 515.789 515.686 52.275 52.275 118.733 72.448 182.426 55.347 62.515-16.691 113.818-67.942 130.56-130.509 17.050-63.693-3.174-130.202-55.398-182.426l-493.158-493.21c-28.16-28.16-59.955-44.851-91.955-48.179-31.642-3.328-61.85 6.861-83.046 28.006-38.4 38.349-43.827 110.541 19.968 174.285l346.368 346.47c14.234 14.182 37.325 14.182 51.558 0 14.234-14.234 14.234-37.325 0-51.558l-346.419-346.419c-29.952-29.952-32.717-58.573-19.968-71.322 5.581-5.53 14.080-8.090 23.859-7.066 15.002 1.587 32.102 11.315 48.077 27.29l493.158 493.158c33.843 33.843 46.797 73.626 36.506 112.077-10.138 37.837-41.165 68.864-79.002 79.002-38.451 10.291-78.234-2.714-112.077-36.506-147.149-147.2-442.061-442.112-515.686-515.686-96.051-96.051-73.062-206.592-11.059-268.646 62.054-62.003 172.595-85.043 268.698 11.059l515.738 515.686c14.182 14.234 37.325 14.234 51.507 0 14.234-14.234 14.234-37.325 0-51.507l-515.738-515.738c-60.774-60.826-128.768-86.323-192.973-86.323z" />
<glyph unicode="&#xe63e;" d="M585.143 621.714q0-14.857-10.857-25.714l-256-256q-10.857-10.857-25.714-10.857t-25.714 10.857l-256 256q-10.857 10.857-10.857 25.714t10.857 25.714 25.714 10.857h512q14.857 0 25.714-10.857t10.857-25.714z" horiz-adv-x="585" />
</font>
</defs>
</svg>
